<svg xmlns="http://www.w3.org/2000/svg" width="1200" height="720" viewBox="0 0 1200 720">
  <rect width="1200" height="720" fill="#f6f7f8"/>
  <rect width="1200" height="72" fill="#172026"/>
  <text x="32" y="46" fill="white" font-family="Inter, system-ui, sans-serif" font-size="28" font-weight="700">StaleZero Devtools</text>
  <rect x="32" y="104" width="288" height="584" rx="8" fill="white" stroke="#d9dee3"/>
  <text x="56" y="144" fill="#172026" font-family="Inter, system-ui, sans-serif" font-size="20" font-weight="700">Graph</text>
  <text x="56" y="184" fill="#475467" font-family="Inter, system-ui, sans-serif" font-size="16">6 mutations</text>
  <text x="56" y="216" fill="#475467" font-family="Inter, system-ui, sans-serif" font-size="16">18 targets</text>
  <text x="56" y="248" fill="#475467" font-family="Inter, system-ui, sans-serif" font-size="16">8 adapters</text>
  <rect x="56" y="292" width="232" height="42" rx="6" fill="#eef8f2"/>
  <text x="72" y="319" fill="#067647" font-family="Inter, system-ui, sans-serif" font-size="15">Preview playground</text>
  <rect x="56" y="354" width="232" height="42" rx="6" fill="#eef4ff"/>
  <text x="72" y="381" fill="#175cd3" font-family="Inter, system-ui, sans-serif" font-size="15">Why is this stale?</text>
  <rect x="352" y="104" width="816" height="584" rx="8" fill="white" stroke="#d9dee3"/>
  <text x="384" y="144" fill="#172026" font-family="Inter, system-ui, sans-serif" font-size="20" font-weight="700">Receipt Timeline</text>
  <rect x="384" y="168" width="752" height="48" fill="#f2f4f7"/>
  <text x="408" y="198" fill="#344054" font-family="Inter, system-ui, sans-serif" font-size="14" font-weight="700">Mutation</text>
  <text x="676" y="198" fill="#344054" font-family="Inter, system-ui, sans-serif" font-size="14" font-weight="700">Status</text>
  <text x="840" y="198" fill="#344054" font-family="Inter, system-ui, sans-serif" font-size="14" font-weight="700">Duration</text>
  <text x="408" y="252" fill="#172026" font-family="Inter, system-ui, sans-serif" font-size="15">ProductPriceChanged</text>
  <text x="676" y="252" fill="#067647" font-family="Inter, system-ui, sans-serif" font-size="15">success</text>
  <text x="840" y="252" fill="#475467" font-family="Inter, system-ui, sans-serif" font-size="15">9ms</text>
  <line x1="384" y1="276" x2="1136" y2="276" stroke="#e8ecef"/>
  <text x="384" y="332" fill="#172026" font-family="Inter, system-ui, sans-serif" font-size="20" font-weight="700">Blast-radius graph</text>
  <circle cx="456" cy="430" r="54" fill="#eef4ff" stroke="#84adff"/>
  <text x="420" y="436" fill="#175cd3" font-family="Inter, system-ui, sans-serif" font-size="15">Mutation</text>
  <line x1="510" y1="430" x2="638" y2="370" stroke="#98a2b3" stroke-width="2"/>
  <line x1="510" y1="430" x2="638" y2="430" stroke="#98a2b3" stroke-width="2"/>
  <line x1="510" y1="430" x2="638" y2="490" stroke="#98a2b3" stroke-width="2"/>
  <rect x="640" y="344" width="180" height="44" rx="6" fill="#eef8f2" stroke="#9bd4aa"/>
  <text x="664" y="372" fill="#067647" font-family="Inter, system-ui, sans-serif" font-size="15">Redis</text>
  <rect x="640" y="404" width="180" height="44" rx="6" fill="#eef8f2" stroke="#9bd4aa"/>
  <text x="664" y="432" fill="#067647" font-family="Inter, system-ui, sans-serif" font-size="15">React Query</text>
  <rect x="640" y="464" width="180" height="44" rx="6" fill="#eef8f2" stroke="#9bd4aa"/>
  <text x="664" y="492" fill="#067647" font-family="Inter, system-ui, sans-serif" font-size="15">Next tag</text>
</svg>
